<svg width="284" height="62" viewBox="0 0 284 62" fill="none" xmlns="http://www.w3.org/2000/svg">
<path d="M45.9465 0.789062H14.9151C6.88157 0.789062 0.369141 7.31352 0.369141 15.3618V46.4506C0.369141 54.499 6.88157 61.0234 14.9151 61.0234H45.9465C53.98 61.0234 60.4924 54.499 60.4924 46.4506V15.3618C60.4924 7.31352 53.98 0.789062 45.9465 0.789062Z" fill="white"/>
<path fill-rule="evenodd" clip-rule="evenodd" d="M30.5075 50.1277C29.4811 50.1443 28.0088 49.3102 28.0088 49.3102C24.9242 47.7652 18.8959 41.7562 18.1543 34.1401C17.4348 26.7517 21.2622 19.5433 30.4123 19.5118H30.4264C30.4319 19.5118 30.4375 19.5118 30.4431 19.5118L30.4724 19.5117C39.6225 19.5432 43.4497 26.7517 42.7303 34.1401C41.9886 41.7562 35.9604 47.7652 32.8759 49.3102C32.8759 49.3102 31.4856 50.1118 30.5075 50.1277Z" fill="#042582"/>
<path fill-rule="evenodd" clip-rule="evenodd" d="M38.7885 15.1073C40.0001 14.3787 41.5466 13.4746 42.8897 12.7464C43.5715 12.3769 44.1973 12.0544 44.6989 11.8236C44.9499 11.708 45.1657 11.6174 45.3392 11.5554C45.5231 11.4897 45.628 11.4682 45.6698 11.4669C46.1075 11.4527 46.3391 11.1717 46.4331 10.9253C46.5318 10.6669 46.5246 10.3522 46.3965 10.1069C46.3319 9.98333 46.2293 9.86345 46.0734 9.78334C45.9097 9.69923 45.7086 9.67028 45.4898 9.70712C45.28 9.74244 45.0631 9.83617 44.8388 9.98268C44.6129 10.1303 44.367 10.3396 44.0996 10.6213C42.4591 12.3496 39.907 13.664 38.8426 14.1016L38.8028 14.118L38.774 14.1437C38.7173 14.1943 38.6359 14.2582 38.5387 14.3228C38.4012 14.2774 38.2463 14.2696 38.1095 14.2784C37.893 14.2922 37.6632 14.3496 37.4615 14.4284C37.2602 14.507 37.0673 14.6148 36.9363 14.7412C36.8068 14.8663 36.7126 15.0378 36.8035 15.2182L36.8038 15.2187C36.8041 15.2194 36.8046 15.2208 36.8054 15.2229C36.8064 15.2261 36.8076 15.2308 36.8088 15.237C36.8113 15.2497 36.8133 15.2665 36.8139 15.2883C36.8151 15.3323 36.811 15.3893 36.8007 15.4599C36.7801 15.601 36.7365 15.7837 36.6731 16.0001C36.5465 16.4325 36.3456 16.9851 36.11 17.5809C35.6389 18.7717 35.0334 20.1232 34.6195 21.0043L34.4659 21.3311L36.1298 20.9569L35.8969 20.7546C35.8346 20.7005 35.8099 20.5908 35.8576 20.4231C35.9023 20.266 35.9975 20.1073 36.0707 20.0117L36.0922 19.9836L36.0986 19.9518C36.2472 19.2095 36.8986 17.3246 38.2989 15.7781C38.5371 15.5151 38.6964 15.2933 38.7885 15.1073ZM22.1409 15.1259C20.9292 14.3971 19.3827 13.4932 18.0396 12.765C17.3579 12.3954 16.732 12.073 16.2304 11.8422C15.9794 11.7266 15.7636 11.6359 15.5901 11.574C15.4062 11.5083 15.3013 11.4867 15.2595 11.4854C14.8218 11.4713 14.5902 11.1903 14.4962 10.9437C14.3975 10.6854 14.4048 10.3707 14.5328 10.1254C14.5974 10.0018 14.7001 9.88197 14.8559 9.80186C15.0197 9.71776 15.2207 9.68881 15.4395 9.72564C15.6493 9.76097 15.8662 9.8547 16.0906 10.0012C16.3164 10.1488 16.5623 10.3581 16.8297 10.6398C18.4702 12.3682 21.0223 13.6826 22.0867 14.1201L22.1265 14.1365L22.1553 14.1622C22.212 14.2129 22.2934 14.2767 22.3906 14.3413C22.5281 14.296 22.683 14.2882 22.8199 14.2969C23.0363 14.3108 23.2661 14.3681 23.4678 14.447C23.6691 14.5256 23.862 14.6333 23.993 14.7598C24.1225 14.8849 24.2168 15.0563 24.1258 15.2367L24.1255 15.2373C24.1254 15.2376 24.1252 15.2381 24.125 15.2387C24.1246 15.2393 24.1243 15.2402 24.124 15.2414C24.1229 15.2447 24.1217 15.2494 24.1205 15.2556C24.118 15.2681 24.1161 15.2851 24.1155 15.3069C24.1142 15.3507 24.1183 15.4079 24.1286 15.4784C24.1492 15.6195 24.1928 15.8022 24.2562 16.0187C24.3828 16.451 24.5837 17.0037 24.8193 17.5994C25.2904 18.7902 25.8959 20.1418 26.3098 21.0229L26.4634 21.3497L24.7995 20.9754L25.0324 20.773C25.0947 20.7191 25.1195 20.6093 25.0717 20.4416C25.027 20.2845 24.9318 20.1258 24.8586 20.0303L24.8371 20.0021L24.8307 19.9702C24.6821 19.2281 24.0307 17.3431 22.6304 15.7967C22.3922 15.5336 22.2329 15.3118 22.1409 15.1259Z" fill="#042582"/>
<path fill-rule="evenodd" clip-rule="evenodd" d="M24.4434 44.3268C25.0512 44.8763 25.6814 45.4459 26.2636 46.0038C26.5323 46.2611 26.8685 46.5923 27.1197 46.8941C27.1291 46.9054 27.1406 46.9168 27.1525 46.9287C27.1894 46.9653 27.229 47.0047 27.2143 47.0479C27.2103 47.0596 27.1972 47.0638 27.1843 47.0678C27.1791 47.0694 27.174 47.0711 27.1695 47.0732C27.121 47.0959 27.0868 47.11 27.0585 47.1216C26.979 47.1544 26.9477 47.1672 26.7825 47.2976C26.0859 47.8477 25.6114 48.5956 25.2322 49.3923C25.2109 49.4369 25.1923 49.4829 25.1736 49.5288C25.1477 49.5925 25.1219 49.6561 25.0892 49.7164C25.0885 49.7175 25.0879 49.7186 25.0872 49.7198C25.0715 49.7488 25.0496 49.7893 25.0182 49.7857C24.9559 49.7786 24.9112 49.6084 24.8827 49.4994C24.8735 49.4648 24.866 49.4363 24.8602 49.4212C24.8039 49.2771 24.7942 49.3696 24.7844 49.4637C24.7832 49.4758 24.7819 49.4879 24.7806 49.4994C24.7057 50.1385 24.6779 50.7881 24.7955 51.4238C24.8565 51.7535 24.9925 52.0942 25.1538 52.3898C25.1799 52.4375 25.174 52.4467 25.1015 52.41C24.5924 52.1519 24.2332 51.563 23.978 51.0744C23.5949 50.3408 23.453 49.5708 23.4032 48.7491C23.3395 47.698 23.3326 46.6043 23.4816 45.5599C23.5538 45.053 23.7374 44.6228 23.9469 44.1677C23.9569 44.1459 23.9666 44.1212 23.9765 44.0957C23.9949 44.0482 24.0144 43.9984 24.039 43.9609C24.1722 44.0817 24.3073 44.2038 24.4434 44.3268ZM36.5189 44.3269C35.9111 44.8763 35.281 45.4459 34.6987 46.0038C34.43 46.2611 34.0938 46.5923 33.8427 46.8941C33.8332 46.9054 33.8217 46.9168 33.8099 46.9287C33.773 46.9653 33.7334 47.0048 33.7481 47.0479C33.752 47.0596 33.7652 47.0638 33.778 47.0678C33.7832 47.0694 33.7884 47.0711 33.7928 47.0732C33.8413 47.0959 33.8756 47.11 33.9038 47.1216C33.9833 47.1544 34.0146 47.1673 34.1798 47.2976C34.8764 47.8477 35.351 48.5956 35.7302 49.3923C35.7514 49.4369 35.7701 49.4829 35.7887 49.5288C35.8146 49.5925 35.8404 49.6561 35.8732 49.7164L35.8751 49.7198C35.8908 49.7488 35.9128 49.7893 35.9442 49.7857C36.0065 49.7786 36.0511 49.6085 36.0797 49.4994C36.0888 49.4648 36.0963 49.4363 36.1022 49.4213C36.1585 49.2771 36.1681 49.3696 36.1779 49.4637C36.1791 49.4758 36.1805 49.4879 36.1818 49.4994C36.2566 50.1385 36.2845 50.7881 36.1669 51.4238C36.1058 51.7535 35.9698 52.0942 35.8085 52.3898C35.7824 52.4375 35.7883 52.4467 35.8608 52.41C36.37 52.1519 36.7291 51.563 36.9843 51.0745C37.3675 50.3409 37.5094 49.5708 37.5591 48.7492C37.6228 47.698 37.6297 46.6044 37.4807 45.5599C37.4085 45.053 37.225 44.6228 37.0154 44.1677C37.0054 44.1459 36.9958 44.1212 36.9858 44.0957C36.9674 44.0482 36.948 43.9984 36.9234 43.9609C36.7902 44.0817 36.6551 44.2038 36.5189 44.3269Z" fill="#042582"/>
<path d="M27.8122 32.4472C27.8122 36.6744 25.0891 40.1013 21.7298 40.1013C18.3706 40.1013 15.6475 36.6744 15.6475 32.4472C15.6475 28.2199 18.3706 24.793 21.7298 24.793C25.0891 24.793 27.8122 28.2199 27.8122 32.4472Z" fill="white"/>
<path fill-rule="evenodd" clip-rule="evenodd" d="M21.7298 39.1297C24.3589 39.1297 26.8425 36.3562 26.8425 32.4472C26.8425 28.5381 24.3589 25.7645 21.7298 25.7645C19.1008 25.7645 16.6172 28.5381 16.6172 32.4472C16.6172 36.3562 19.1008 39.1297 21.7298 39.1297ZM21.7298 40.1013C25.0891 40.1013 27.8122 36.6744 27.8122 32.4472C27.8122 28.2199 25.0891 24.793 21.7298 24.793C18.3706 24.793 15.6475 28.2199 15.6475 32.4472C15.6475 36.6744 18.3706 40.1013 21.7298 40.1013Z" fill="#042582"/>
<path d="M45.4 32.4471C45.4 36.6744 42.6769 40.1013 39.3177 40.1013C35.9585 40.1013 33.2354 36.6744 33.2354 32.4471C33.2354 28.2199 35.9585 24.793 39.3177 24.793C42.6769 24.793 45.4 28.2199 45.4 32.4471Z" fill="white"/>
<path fill-rule="evenodd" clip-rule="evenodd" d="M39.3177 39.1297C41.9467 39.1297 44.4303 36.3562 44.4303 32.4471C44.4303 28.5381 41.9467 25.7645 39.3177 25.7645C36.6887 25.7645 34.2051 28.5381 34.2051 32.4471C34.2051 36.3562 36.6887 39.1297 39.3177 39.1297ZM39.3177 40.1013C42.6769 40.1013 45.4 36.6744 45.4 32.4471C45.4 28.2199 42.6769 24.793 39.3177 24.793C35.9585 24.793 33.2354 28.2199 33.2354 32.4471C33.2354 36.6744 35.9585 40.1013 39.3177 40.1013Z" fill="#042582"/>
<path d="M276.853 11.1328C278.16 11.1328 279.331 11.4338 280.368 12.0359C281.404 12.6157 282.215 13.4296 282.8 14.4776C283.386 15.5034 283.679 16.6629 283.679 17.9562C283.679 19.2496 283.386 20.4203 282.8 21.4684C282.215 22.5164 281.404 23.3415 280.368 23.9435C279.331 24.5233 278.16 24.8132 276.853 24.8132C275.525 24.8132 274.342 24.5233 273.306 23.9435C272.269 23.3415 271.458 22.5164 270.873 21.4684C270.287 20.4203 269.994 19.2496 269.994 17.9562C269.994 16.6629 270.287 15.5034 270.873 14.4776C271.458 13.4296 272.269 12.6157 273.306 12.0359C274.342 11.4338 275.525 11.1328 276.853 11.1328ZM276.853 23.4752C278.476 23.4752 279.782 22.9624 280.773 21.9366C281.787 20.9109 282.294 19.5841 282.294 17.9562C282.294 16.3285 281.787 15.0017 280.773 13.9759C279.782 12.9502 278.476 12.4373 276.853 12.4373C275.209 12.4373 273.891 12.9502 272.9 13.9759C271.931 15.0017 271.447 16.3285 271.447 17.9562C271.447 19.5841 271.931 20.9109 272.9 21.9366C273.891 22.9624 275.209 23.4752 276.853 23.4752ZM279.895 16.5514C279.895 17.0866 279.748 17.5437 279.455 17.9228C279.185 18.2796 278.802 18.536 278.307 18.6921L280.199 21.4684L278.07 21.5018L276.448 18.8259H275.874V21.5018H274.117V14.3104H277.361C278.126 14.3104 278.735 14.5111 279.185 14.9125C279.658 15.3138 279.895 15.8602 279.895 16.5514ZM275.874 17.3876H277.259C277.507 17.3876 277.71 17.3208 277.867 17.187C278.047 17.0532 278.137 16.8636 278.137 16.6184C278.137 16.373 278.047 16.1946 277.867 16.0831C277.71 15.9494 277.507 15.8824 277.259 15.8824H275.874V17.3876Z" fill="white"/>
<path d="M95.0133 15.1503L105.812 44.0962H96.8609L95.3007 39.2924H85.8984L84.3382 44.0962H75.5107L86.2679 15.1503H95.0133ZM93.6584 33.1337L90.6201 23.444L87.5818 33.1337H93.6584Z" fill="white"/>
<path d="M121.904 22.9103C127.735 22.9103 130.198 26.5234 130.198 32.8874V44.0962H122.726V32.8874C122.726 30.0544 122.069 29.069 119.646 29.069C117.47 29.069 116.033 30.6292 115.622 33.0926V44.0962H108.15V23.444H115.417V25.9486C116.772 24.3062 118.989 22.9103 121.904 22.9103Z" fill="white"/>
<path d="M143.781 29.3974V44.0962H136.308V29.3974H132.695V23.444H136.308V15.3556H143.781V23.444H149.734V29.3974H143.781Z" fill="white"/>
<path d="M161.038 23.4851C161.038 24.6758 162.311 25.1684 167.196 26.5644C174.382 28.5763 176.476 31.3682 176.476 35.7204C176.476 42.3307 170.892 44.6299 163.542 44.6299C158.697 44.6299 154.51 43.4803 151.184 41.3864L153.976 35.0634C156.727 36.6236 159.642 37.6501 163.132 37.6501C166.745 37.6501 167.977 37.2395 167.977 36.0488C167.977 34.6939 166.95 34.037 161.038 32.3536C154.797 30.5881 152.539 27.7551 152.539 23.444C152.539 17.9422 156.686 14.8218 164.569 14.8218C168.634 14.8218 172.082 15.643 175.654 17.8601L172.534 23.6904C170.029 22.3354 167.812 21.6375 164.938 21.6375C161.982 21.6375 161.038 22.1712 161.038 23.4851Z" fill="white"/>
<path d="M189.289 29.3974V44.0962H181.817V29.3974H178.204V23.444H181.817V15.3556H189.289V23.444H195.243V29.3974H189.289Z" fill="white"/>
<path d="M214.065 23.444H221.537V44.0962H214.065V41.5917C212.751 43.234 210.534 44.6299 207.619 44.6299C201.706 44.6299 196.903 39.3335 196.903 33.6675C196.903 27.7551 201.542 22.9103 207.619 22.9103C210.534 22.9103 212.751 24.3473 214.065 25.9896V23.444ZM214.393 34.4476V33.1337C213.942 30.6702 212.053 29.069 209.59 29.069C206.305 29.069 204.622 30.7523 204.622 33.6675C204.622 36.3362 206.469 38.4712 209.59 38.4712C212.053 38.4712 213.942 36.911 214.393 34.4476Z" fill="white"/>
<path d="M237.25 38.4712C238.81 38.4712 240.411 38.307 242.628 37.4859V43.7677C240.945 44.3425 238.974 44.6299 236.962 44.6299C230.516 44.6299 224.809 40.1136 224.809 33.7085C224.809 27.1803 230.557 22.9103 236.962 22.9103C239.221 22.9103 240.74 23.2798 242.628 23.9778V30.2186C240.781 29.4385 238.728 29.069 236.962 29.069C234.088 29.069 232.569 30.6292 232.528 33.7085C232.528 36.6647 234.54 38.4712 237.25 38.4712Z" fill="white"/>
<path d="M269.03 44.0962H259.751L253.51 37.6501V44.0962H246.119V9.56641H253.51V27.7551L259.012 23.444H268.414L257.246 32.1894L269.03 44.0962Z" fill="white"/>
</svg>
