<svg width="1920" height="1080" viewBox="0 0 1920 1080" fill="none" xmlns="http://www.w3.org/2000/svg">
<path fill-rule="evenodd" clip-rule="evenodd" d="M1053.15 262.124C1066.61 254.035 1083.8 243.999 1098.73 235.916C1106.3 231.812 1113.26 228.233 1118.83 225.671C1121.62 224.388 1124.02 223.381 1125.95 222.693C1127.99 221.964 1129.16 221.725 1129.62 221.71C1134.49 221.553 1137.06 218.434 1138.11 215.697C1139.2 212.829 1139.12 209.336 1137.7 206.613C1136.98 205.241 1135.84 203.91 1134.11 203.021C1132.29 202.087 1130.05 201.765 1127.62 202.174C1125.29 202.567 1122.88 203.607 1120.39 205.234C1117.88 206.872 1115.14 209.195 1112.17 212.323C1093.94 231.51 1065.58 246.102 1053.75 250.96L1053.31 251.141L1052.98 251.427C1052.35 251.988 1051.45 252.698 1050.37 253.415C1048.84 252.911 1047.12 252.825 1045.6 252.922C1043.19 253.076 1040.64 253.713 1038.4 254.588C1036.16 255.461 1034.02 256.656 1032.56 258.06C1031.12 259.449 1030.07 261.352 1031.09 263.355L1031.09 263.362C1031.09 263.369 1031.1 263.384 1031.11 263.407C1031.12 263.444 1031.13 263.495 1031.14 263.564C1031.17 263.705 1031.19 263.892 1031.2 264.134C1031.21 264.621 1031.17 265.255 1031.05 266.038C1030.83 267.605 1030.34 269.633 1029.64 272.037C1028.23 276.836 1026 282.971 1023.38 289.585C1019.52 299.315 1014.86 310.011 1010.83 318.881C996.093 313.921 979.409 311.168 960.729 311.104L960.403 311.105H960.218L960.061 311.105C941.524 311.169 924.953 313.88 910.296 318.768C906.302 309.962 901.704 299.404 897.897 289.79C895.278 283.177 893.045 277.041 891.639 272.242C890.934 269.839 890.449 267.811 890.22 266.244C890.106 265.461 890.061 264.827 890.075 264.34C890.081 264.098 890.103 263.91 890.13 263.77C890.143 263.701 890.157 263.649 890.169 263.613C890.172 263.602 890.176 263.594 890.178 263.586L890.18 263.582C890.181 263.578 890.183 263.574 890.184 263.571L890.186 263.567L890.189 263.561C891.2 261.558 890.153 259.655 888.713 258.266C887.258 256.862 885.114 255.666 882.877 254.793C880.635 253.918 878.08 253.282 875.676 253.128C874.154 253.031 872.433 253.117 870.905 253.621C869.824 252.904 868.92 252.194 868.29 251.632L867.969 251.347L867.528 251.165C855.698 246.308 827.335 231.716 809.103 212.528C806.132 209.401 803.399 207.078 800.888 205.439C798.395 203.813 795.984 202.772 793.652 202.38C791.221 201.971 788.987 202.292 787.167 203.226C785.434 204.116 784.293 205.446 783.576 206.818C782.153 209.541 782.073 213.035 783.168 215.903C784.214 218.639 786.788 221.759 791.653 221.916C792.116 221.931 793.283 222.17 795.326 222.899C797.255 223.586 799.653 224.593 802.443 225.876C808.017 228.439 814.972 232.018 822.55 236.121C837.476 244.204 854.663 254.24 868.129 262.33C869.152 264.394 870.923 266.857 873.57 269.777C889.132 286.945 896.372 307.87 898.023 316.11L898.094 316.464L898.333 316.776C899.147 317.837 900.205 319.599 900.702 321.343C900.799 321.683 900.869 322.001 900.915 322.298C875.045 333.196 855.839 351.359 842.956 373.703C815.714 384.667 795.992 416.76 795.992 454.644C795.992 491.224 814.38 522.405 840.17 534.378C851.455 559.98 867.046 582.419 883.053 600.345C881.411 611.915 881.488 624.024 882.195 635.664C882.748 644.786 884.324 653.334 888.583 661.479C891.419 666.902 895.411 673.44 901.07 676.304C901.876 676.712 901.94 676.61 901.651 676.08C899.858 672.799 898.346 669.016 897.668 665.357C896.361 658.299 896.671 651.087 897.502 643.993C897.516 643.873 897.529 643.748 897.543 643.623L897.545 643.597C897.654 642.553 897.761 641.526 898.387 643.125C898.453 643.293 898.536 643.609 898.637 643.993C898.955 645.204 899.451 647.092 900.143 647.171C900.491 647.211 900.735 646.764 900.91 646.442L900.911 646.44L900.921 646.422L900.931 646.401C901.296 645.733 901.583 645.027 901.871 644.32C902.078 643.81 902.286 643.3 902.522 642.803C905.086 637.422 908.042 632.241 911.708 627.634C919.648 633.934 927.051 638.758 933.349 641.91C933.349 641.91 949.713 651.169 961.119 650.984C971.99 650.809 987.44 641.91 987.44 641.91C993.888 638.684 1001.49 633.705 1009.64 627.185C1013.48 631.904 1016.54 637.247 1019.19 642.804C1019.43 643.299 1019.64 643.81 1019.84 644.32L1019.85 644.337C1020.14 645.038 1020.42 645.739 1020.78 646.401L1020.8 646.44L1020.8 646.442C1020.98 646.764 1021.22 647.211 1021.57 647.171C1022.26 647.092 1022.76 645.204 1023.08 643.993C1023.18 643.61 1023.26 643.294 1023.33 643.126C1023.95 641.526 1024.06 642.553 1024.17 643.597C1024.18 643.731 1024.2 643.865 1024.21 643.993C1025.04 651.087 1025.35 658.299 1024.05 665.357C1023.37 669.017 1021.86 672.799 1020.06 676.081C1019.77 676.611 1019.84 676.712 1020.64 676.304C1026.3 673.44 1030.29 666.902 1033.13 661.479C1037.39 653.335 1038.97 644.786 1039.52 635.664C1040.23 623.996 1040.3 611.854 1038.65 600.26C1038.61 599.991 1038.57 599.724 1038.52 599.458C1054.04 581.919 1069.11 560.152 1080.17 535.389C1107.16 524.239 1126.64 492.305 1126.64 454.649C1126.64 415.68 1105.78 382.838 1077.32 372.818C1064.52 351.005 1045.62 333.255 1020.31 322.482C1020.35 322.079 1020.43 321.631 1020.57 321.137C1021.07 319.393 1022.13 317.631 1022.94 316.57L1023.18 316.258L1023.25 315.904C1024.9 307.664 1032.14 286.74 1047.7 269.572C1050.35 266.651 1052.12 264.189 1053.15 262.124Z" fill="#042582"/>
<path fill-rule="evenodd" clip-rule="evenodd" d="M862.619 529.397C891.838 529.397 919.44 498.606 919.44 455.21C919.44 411.815 891.838 381.023 862.619 381.023C833.401 381.023 805.8 411.815 805.8 455.21C805.8 498.606 833.401 529.397 862.619 529.397ZM1058.08 529.402C1087.29 529.402 1114.9 498.611 1114.9 455.216C1114.9 411.82 1087.29 381.029 1058.08 381.029C1028.86 381.029 1001.26 411.82 1001.26 455.216C1001.26 498.611 1028.86 529.402 1058.08 529.402Z" fill="white"/>
<path d="M1340.54 731.778C1345.99 731.778 1350.87 733.033 1355.19 735.543C1359.51 737.961 1362.89 741.354 1365.33 745.723C1367.78 750 1369 754.834 1369 760.226C1369 765.618 1367.78 770.499 1365.33 774.868C1362.89 779.238 1359.51 782.678 1355.19 785.188C1350.87 787.605 1345.99 788.813 1340.54 788.813C1335 788.813 1330.07 787.605 1325.75 785.188C1321.43 782.678 1318.05 779.238 1315.61 774.868C1313.17 770.499 1311.94 765.618 1311.94 760.226C1311.94 754.834 1313.17 750 1315.61 745.723C1318.05 741.354 1321.43 737.961 1325.75 735.543C1330.07 733.033 1335 731.778 1340.54 731.778ZM1340.54 783.235C1347.3 783.235 1352.75 781.097 1356.88 776.821C1361.11 772.544 1363.22 767.013 1363.22 760.226C1363.22 753.44 1361.11 747.908 1356.88 743.632C1352.75 739.355 1347.3 737.217 1340.54 737.217C1333.69 737.217 1328.19 739.355 1324.06 743.632C1320.02 747.908 1318 753.44 1318 760.226C1318 767.013 1320.02 772.544 1324.06 776.821C1328.19 781.097 1333.69 783.235 1340.54 783.235ZM1353.22 754.369C1353.22 756.6 1352.61 758.506 1351.39 760.087C1350.26 761.574 1348.67 762.643 1346.6 763.294L1354.49 774.868L1345.61 775.008L1338.85 763.852H1336.46V775.008H1329.13V745.026H1342.66C1345.85 745.026 1348.38 745.863 1350.26 747.536C1352.23 749.21 1353.22 751.487 1353.22 754.369ZM1336.46 757.855H1342.23C1343.27 757.855 1344.11 757.577 1344.77 757.019C1345.52 756.461 1345.89 755.671 1345.89 754.648C1345.89 753.625 1345.52 752.882 1344.77 752.417C1344.11 751.859 1343.27 751.58 1342.23 751.58H1336.46V757.855Z" fill="#042582"/>
<path d="M632.309 754.771L677.328 875.45H640.012L633.507 855.423H594.308L587.803 875.45H551L595.848 754.771H632.309ZM626.66 829.746L613.993 789.349L601.326 829.746H626.66Z" fill="#042582"/>
<path d="M738.43 787.124C762.737 787.124 773.008 802.187 773.008 828.719V875.45H741.854V828.719C741.854 816.908 739.115 812.8 729.015 812.8C719.943 812.8 713.952 819.305 712.24 829.575V875.45H681.086V789.349H711.384V799.791C717.033 792.943 726.276 787.124 738.43 787.124Z" fill="#042582"/>
<path d="M823.644 814.169V875.45H792.49V814.169H777.426V789.349H792.49V755.627H823.644V789.349H848.464V814.169H823.644Z" fill="#042582"/>
<path d="M889.6 789.52C889.6 794.484 894.907 796.538 915.276 802.358C945.232 810.746 953.962 822.386 953.962 840.531C953.962 868.09 930.682 877.676 900.042 877.676C879.843 877.676 862.383 872.883 848.518 864.153L860.158 837.792C871.627 844.296 883.78 848.576 898.33 848.576C913.394 848.576 918.529 846.864 918.529 841.9C918.529 836.251 914.249 833.512 889.6 826.494C863.581 819.133 854.167 807.322 854.167 789.349C854.167 766.411 871.455 753.402 904.321 753.402C921.268 753.402 935.646 756.825 950.539 766.069L937.529 790.376C927.088 784.727 917.844 781.817 905.862 781.817C893.537 781.817 889.6 784.042 889.6 789.52Z" fill="#042582"/>
<path d="M1001.39 814.169V875.45H970.239V814.169H955.175V789.349H970.239V755.627H1001.39V789.349H1026.21V814.169H1001.39Z" fill="#042582"/>
<path d="M1098.69 789.349H1129.85V875.45H1098.69V865.009C1093.22 871.856 1083.97 877.676 1071.82 877.676C1047.17 877.676 1027.14 855.594 1027.14 831.972C1027.14 807.322 1046.49 787.124 1071.82 787.124C1083.97 787.124 1093.22 793.115 1098.69 799.962V789.349ZM1100.06 835.224V829.746C1098.18 819.476 1090.31 812.8 1080.04 812.8C1066.34 812.8 1059.32 819.818 1059.32 831.972C1059.32 843.098 1067.03 851.999 1080.04 851.999C1090.31 851.999 1098.18 845.495 1100.06 835.224Z" fill="#042582"/>
<path d="M1189.36 851.999C1195.87 851.999 1202.55 851.315 1211.79 847.891V874.081C1204.77 876.478 1196.55 877.676 1188.17 877.676C1161.29 877.676 1137.5 858.846 1137.5 832.143C1137.5 804.926 1161.46 787.124 1188.17 787.124C1197.58 787.124 1203.91 788.664 1211.79 791.574V817.593C1204.09 814.341 1195.53 812.8 1188.17 812.8C1176.18 812.8 1169.85 819.305 1169.68 832.143C1169.68 844.468 1178.07 851.999 1189.36 851.999Z" fill="#042582"/>
<path d="M1315.87 875.45H1277.18L1251.16 848.576V875.45H1220.35V731.491H1251.16V807.322L1274.1 789.349H1313.3L1266.74 825.809L1315.87 875.45Z" fill="#042582"/>
</svg>
