<svg width="1920" height="1144" viewBox="0 0 1920 1144" fill="none" xmlns="http://www.w3.org/2000/svg">
<path d="M1048.8 248H871.913C826.122 248 789 285.19 789 331.066V508.276C789 554.152 826.122 591.342 871.913 591.342H1048.8C1094.59 591.342 1131.71 554.152 1131.71 508.276V331.066C1131.71 285.19 1094.59 248 1048.8 248Z" fill="white"/>
<path fill-rule="evenodd" clip-rule="evenodd" d="M960.785 529.243C954.934 529.338 946.542 524.583 946.542 524.583C928.959 515.776 894.597 481.524 890.37 438.112C886.269 395.997 908.085 354.908 960.242 354.729H960.322C960.354 354.729 960.386 354.729 960.417 354.729L960.584 354.729C1012.74 354.908 1034.56 395.997 1030.46 438.112C1026.23 481.524 991.867 515.776 974.285 524.583C974.285 524.583 966.36 529.152 960.785 529.243Z" fill="#042582"/>
<path fill-rule="evenodd" clip-rule="evenodd" d="M1008 329.588C1014.91 325.435 1023.73 320.281 1031.38 316.131C1035.27 314.024 1038.83 312.186 1041.69 310.87C1043.12 310.212 1044.35 309.695 1045.34 309.342C1046.39 308.968 1046.99 308.845 1047.23 308.837C1049.72 308.756 1051.04 307.155 1051.58 305.75C1052.14 304.277 1052.1 302.483 1051.37 301.085C1051 300.381 1050.42 299.697 1049.53 299.241C1048.6 298.761 1047.45 298.596 1046.2 298.806C1045.01 299.008 1043.77 299.542 1042.49 300.377C1041.2 301.218 1039.8 302.411 1038.28 304.017C1028.93 313.869 1014.38 321.361 1008.31 323.855L1008.09 323.949L1007.92 324.095C1007.6 324.384 1007.13 324.748 1006.58 325.116C1005.8 324.857 1004.91 324.813 1004.13 324.863C1002.9 324.942 1001.59 325.269 1000.44 325.718C999.292 326.166 998.193 326.781 997.446 327.501C996.708 328.214 996.171 329.192 996.689 330.22L996.691 330.223C996.693 330.227 996.696 330.235 996.7 330.247C996.705 330.265 996.712 330.292 996.719 330.327C996.734 330.4 996.745 330.496 996.748 330.62C996.755 330.87 996.732 331.195 996.673 331.598C996.556 332.402 996.307 333.444 995.946 334.677C995.224 337.142 994.079 340.292 992.736 343.688C990.051 350.475 986.599 358.179 984.24 363.201L983.365 365.064L992.849 362.931L991.521 361.778C991.166 361.47 991.025 360.845 991.297 359.888C991.552 358.993 992.095 358.089 992.512 357.544L992.635 357.384L992.671 357.202C993.518 352.971 997.231 342.227 1005.21 333.412C1006.57 331.913 1007.48 330.648 1008 329.588ZM913.111 329.694C906.204 325.54 897.389 320.387 889.733 316.237C885.847 314.13 882.279 312.292 879.42 310.976C877.989 310.317 876.76 309.8 875.771 309.448C874.722 309.073 874.124 308.95 873.886 308.943C871.391 308.862 870.071 307.261 869.535 305.855C868.973 304.383 869.014 302.589 869.744 301.191C870.112 300.486 870.697 299.803 871.586 299.346C872.519 298.867 873.665 298.702 874.912 298.912C876.108 299.113 877.344 299.648 878.623 300.483C879.911 301.324 881.312 302.517 882.836 304.123C892.187 313.975 906.734 321.467 912.801 323.961L913.028 324.054L913.193 324.201C913.516 324.49 913.98 324.853 914.534 325.222C915.318 324.963 916.201 324.919 916.981 324.969C918.214 325.048 919.524 325.375 920.674 325.824C921.822 326.272 922.921 326.886 923.668 327.607C924.406 328.32 924.944 329.297 924.425 330.326L924.423 330.329C924.422 330.331 924.421 330.334 924.42 330.337C924.418 330.341 924.417 330.346 924.415 330.352C924.408 330.371 924.402 330.398 924.395 330.433C924.38 330.505 924.37 330.601 924.366 330.726C924.359 330.976 924.382 331.301 924.441 331.703C924.558 332.508 924.807 333.549 925.168 334.783C925.89 337.247 927.035 340.398 928.378 343.793C931.063 350.581 934.514 358.285 936.874 363.307L937.749 365.17L928.265 363.037L929.593 361.883C929.948 361.576 930.089 360.95 929.817 359.994C929.562 359.098 929.019 358.194 928.602 357.65L928.479 357.489L928.443 357.307C927.596 353.077 923.883 342.332 915.901 333.518C914.543 332.018 913.635 330.754 913.111 329.694Z" fill="#042582"/>
<path fill-rule="evenodd" clip-rule="evenodd" d="M926.232 496.184C929.697 499.316 933.289 502.563 936.608 505.743C938.139 507.21 940.055 509.098 941.487 510.818C941.541 510.882 941.607 510.948 941.674 511.015C941.884 511.224 942.11 511.448 942.026 511.695C942.004 511.761 941.929 511.785 941.855 511.808C941.826 511.817 941.797 511.827 941.771 511.839C941.495 511.968 941.299 512.049 941.138 512.115C940.685 512.302 940.507 512.374 939.565 513.118C935.594 516.254 932.89 520.517 930.728 525.058C930.607 525.312 930.501 525.574 930.395 525.836C930.247 526.199 930.1 526.562 929.913 526.905C929.909 526.912 929.906 526.918 929.902 526.925C929.813 527.09 929.687 527.321 929.508 527.3C929.153 527.26 928.899 526.29 928.736 525.669C928.684 525.471 928.641 525.309 928.608 525.223C928.287 524.401 928.232 524.929 928.176 525.465C928.169 525.534 928.161 525.603 928.154 525.669C927.727 529.311 927.569 533.014 928.239 536.638C928.587 538.517 929.362 540.459 930.281 542.144C930.43 542.416 930.397 542.468 929.983 542.259C927.081 540.788 925.034 537.431 923.579 534.646C921.395 530.465 920.586 526.075 920.303 521.391C919.94 515.401 919.901 509.166 920.75 503.213C921.161 500.324 922.208 497.871 923.402 495.277C923.459 495.153 923.514 495.012 923.571 494.867C923.676 494.596 923.787 494.312 923.927 494.099C924.686 494.787 925.456 495.483 926.232 496.184ZM995.064 496.185C991.599 499.316 988.007 502.563 984.688 505.743C983.157 507.21 981.241 509.098 979.809 510.818C979.755 510.882 979.689 510.948 979.622 511.015C979.412 511.224 979.186 511.449 979.27 511.695C979.292 511.761 979.367 511.785 979.441 511.808C979.47 511.817 979.499 511.827 979.525 511.839C979.801 511.968 979.997 512.049 980.158 512.115C980.611 512.302 980.789 512.375 981.731 513.118C985.702 516.254 988.406 520.517 990.568 525.058C990.689 525.312 990.795 525.574 990.901 525.836C991.049 526.199 991.196 526.562 991.383 526.905L991.394 526.925C991.483 527.09 991.609 527.321 991.788 527.3C992.143 527.26 992.397 526.29 992.56 525.669C992.612 525.471 992.655 525.309 992.688 525.223C993.009 524.401 993.064 524.929 993.12 525.465C993.127 525.534 993.135 525.603 993.142 525.669C993.569 529.311 993.727 533.014 993.057 536.638C992.709 538.517 991.934 540.459 991.015 542.144C990.866 542.416 990.899 542.468 991.313 542.259C994.215 540.788 996.262 537.431 997.717 534.647C999.901 530.465 1000.71 526.075 1000.99 521.392C1001.36 515.401 1001.4 509.167 1000.55 503.213C1000.13 500.324 999.088 497.871 997.894 495.277C997.837 495.153 997.782 495.012 997.725 494.867C997.62 494.596 997.509 494.312 997.369 494.099C996.61 494.787 995.84 495.483 995.064 496.185Z" fill="#042582"/>
<path d="M945.418 428.455C945.418 452.551 929.895 472.084 910.747 472.084C891.599 472.084 876.077 452.551 876.077 428.455C876.077 404.359 891.599 384.825 910.747 384.825C929.895 384.825 945.418 404.359 945.418 428.455Z" fill="white"/>
<path fill-rule="evenodd" clip-rule="evenodd" d="M910.747 466.546C925.733 466.546 939.89 450.737 939.89 428.455C939.89 406.173 925.733 390.363 910.747 390.363C895.761 390.363 881.605 406.173 881.605 428.455C881.605 450.737 895.761 466.546 910.747 466.546ZM910.747 472.084C929.895 472.084 945.418 452.551 945.418 428.455C945.418 404.359 929.895 384.825 910.747 384.825C891.599 384.825 876.077 404.359 876.077 428.455C876.077 452.551 891.599 472.084 910.747 472.084Z" fill="#042582"/>
<path d="M1045.67 428.454C1045.67 452.55 1030.15 472.084 1011 472.084C991.854 472.084 976.332 452.55 976.332 428.454C976.332 404.359 991.854 384.825 1011 384.825C1030.15 384.825 1045.67 404.359 1045.67 428.454Z" fill="white"/>
<path fill-rule="evenodd" clip-rule="evenodd" d="M1011 466.546C1025.99 466.546 1040.14 450.737 1040.14 428.454C1040.14 406.173 1025.99 390.363 1011 390.363C996.016 390.363 981.86 406.173 981.86 428.454C981.86 450.737 996.016 466.546 1011 466.546ZM1011 472.084C1030.15 472.084 1045.67 452.55 1045.67 428.454C1045.67 404.359 1030.15 384.825 1011 384.825C991.854 384.825 976.332 404.359 976.332 428.454C976.332 452.55 991.854 472.084 1011 472.084Z" fill="#042582"/>
<path d="M1515.49 661.282C1522.93 661.282 1529.61 662.998 1535.52 666.43C1541.42 669.735 1546.05 674.374 1549.38 680.348C1552.72 686.195 1554.39 692.804 1554.39 700.177C1554.39 707.549 1552.72 714.222 1549.38 720.196C1546.05 726.17 1541.42 730.873 1535.52 734.305C1529.61 737.609 1522.93 739.262 1515.49 739.262C1507.91 739.262 1501.17 737.609 1495.26 734.305C1489.36 730.873 1484.73 726.17 1481.39 720.196C1478.06 714.222 1476.39 707.549 1476.39 700.177C1476.39 692.804 1478.06 686.195 1481.39 680.348C1484.73 674.374 1489.36 669.735 1495.26 666.43C1501.17 662.998 1507.91 661.282 1515.49 661.282ZM1515.49 731.635C1524.73 731.635 1532.18 728.712 1537.83 722.865C1543.61 717.018 1546.5 709.455 1546.5 700.177C1546.5 690.898 1543.61 683.335 1537.83 677.488C1532.18 671.641 1524.73 668.718 1515.49 668.718C1506.11 668.718 1498.6 671.641 1492.95 677.488C1487.43 683.335 1484.67 690.898 1484.67 700.177C1484.67 709.455 1487.43 717.018 1492.95 722.865C1498.6 728.712 1506.11 731.635 1515.49 731.635ZM1532.82 692.169C1532.82 695.22 1531.99 697.825 1530.32 699.986C1528.78 702.02 1526.59 703.481 1523.77 704.371L1534.56 720.196L1522.42 720.387L1513.18 705.134H1509.9V720.387H1499.89V679.395H1518.38C1522.74 679.395 1526.21 680.539 1528.78 682.827C1531.47 685.115 1532.82 688.229 1532.82 692.169ZM1509.9 696.935H1517.8C1519.21 696.935 1520.37 696.554 1521.26 695.791C1522.29 695.029 1522.8 693.948 1522.8 692.55C1522.8 691.152 1522.29 690.135 1521.26 689.5C1520.37 688.737 1519.21 688.356 1517.8 688.356H1509.9V696.935Z" fill="white"/>
<path d="M479.057 682.5L540.608 847.495H489.589L480.695 820.113H427.101L418.208 847.495H367.891L429.208 682.5H479.057ZM471.334 785.008L454.015 729.775L436.697 785.008H471.334ZM632.339 726.733C665.572 726.733 679.614 747.328 679.614 783.604V847.495H637.02V783.604C637.02 767.455 633.275 761.838 619.467 761.838C607.063 761.838 598.872 770.732 596.532 784.774V847.495H553.937V729.775H595.362V744.052C603.085 734.69 615.723 726.733 632.339 726.733ZM757.036 763.711V847.495H714.442V763.711H693.846V729.775H714.442V683.671H757.036V729.775H790.971V763.711H757.036ZM855.404 730.01C855.404 736.797 862.659 739.605 890.509 747.562C931.465 759.03 943.401 774.944 943.401 799.752C943.401 837.432 911.572 850.538 869.68 850.538C842.064 850.538 818.192 843.985 799.235 832.049L815.15 796.007C830.83 804.901 847.447 810.752 867.34 810.752C887.935 810.752 894.956 808.411 894.956 801.624C894.956 793.901 889.105 790.157 855.404 780.561C819.83 770.498 806.958 754.349 806.958 729.775C806.958 698.415 830.596 680.628 875.531 680.628C898.7 680.628 918.359 685.309 938.72 697.947L920.934 731.18C906.657 723.457 894.02 719.478 877.637 719.478C860.787 719.478 855.404 722.52 855.404 730.01ZM1016.44 763.711V847.495H973.846V763.711H953.25V729.775H973.846V683.671H1016.44V729.775H1050.37V763.711H1016.44ZM1157.66 729.775H1200.26V847.495H1157.66V833.219C1150.17 842.58 1137.54 850.538 1120.92 850.538C1087.22 850.538 1059.84 820.347 1059.84 788.05C1059.84 754.349 1086.28 726.733 1120.92 726.733C1137.54 726.733 1150.17 734.924 1157.66 744.286V729.775ZM1159.54 792.497V785.008C1156.96 770.966 1146.2 761.838 1132.15 761.838C1113.43 761.838 1103.84 771.434 1103.84 788.05C1103.84 803.262 1114.37 815.432 1132.15 815.432C1146.2 815.432 1156.96 806.539 1159.54 792.497ZM1289.82 815.432C1298.71 815.432 1307.84 814.496 1320.48 809.815V845.623C1310.88 848.899 1299.65 850.538 1288.18 850.538C1251.44 850.538 1218.91 824.794 1218.91 788.284C1218.91 751.073 1251.67 726.733 1288.18 726.733C1301.05 726.733 1309.71 728.839 1320.48 732.818V768.391C1309.95 763.945 1298.25 761.838 1288.18 761.838C1271.8 761.838 1263.14 770.732 1262.91 788.284C1262.91 805.135 1274.37 815.432 1289.82 815.432ZM1470.97 847.495H1418.08L1382.5 810.752V847.495H1340.38V650.672H1382.5V754.349L1413.86 729.775H1467.46L1403.8 779.625L1470.97 847.495Z" fill="white"/>
</svg>
