<svg width="592" height="592" viewBox="0 0 592 592" fill="none" xmlns="http://www.w3.org/2000/svg">
<path fill-rule="evenodd" clip-rule="evenodd" d="M395.295 106.845C409.702 98.2272 428.093 87.5359 444.063 78.9252C452.17 74.5543 459.611 70.7418 465.576 68.0116C468.561 66.6449 471.127 65.5724 473.19 64.8398C475.377 64.0633 476.624 63.8087 477.121 63.7928C482.325 63.6254 485.079 60.3025 486.198 57.3875C487.371 54.3319 487.284 50.6104 485.761 47.7096C484.995 46.2481 483.774 44.8305 481.919 43.8831C479.973 42.8883 477.582 42.5461 474.98 42.9817C472.486 43.3993 469.906 44.5078 467.239 46.2406C464.553 47.9858 461.629 50.461 458.45 53.7925C438.943 74.2324 408.596 89.7769 395.939 94.9517L395.466 95.1446L395.123 95.4495C394.448 96.0475 393.482 96.8034 392.324 97.5672C390.69 97.0305 388.849 96.9384 387.221 97.0424C384.649 97.2059 381.915 97.8841 379.516 98.8163C377.123 99.7461 374.83 101.02 373.273 102.516C371.731 103.995 370.611 106.022 371.693 108.156L371.697 108.163C371.7 108.171 371.705 108.187 371.714 108.212C371.726 108.25 371.741 108.305 371.757 108.379C371.784 108.528 371.808 108.729 371.815 108.986C371.83 109.505 371.782 110.18 371.659 111.015C371.414 112.684 370.895 114.844 370.141 117.404C368.638 122.516 366.248 129.052 363.446 136.098C359.323 146.464 354.334 157.858 350.025 167.306C334.255 162.024 316.406 159.093 296.423 159.025H296.073H295.875H295.707C275.872 159.092 258.141 161.981 242.457 167.189C238.184 157.807 233.264 146.559 229.189 136.317C226.388 129.272 223.999 122.736 222.495 117.624C221.739 115.063 221.222 112.903 220.975 111.234C220.854 110.399 220.806 109.724 220.821 109.205C220.828 108.948 220.85 108.748 220.879 108.598C220.893 108.524 220.908 108.47 220.922 108.431L220.926 108.417C220.927 108.413 220.928 108.41 220.929 108.406L220.932 108.398C220.935 108.393 220.938 108.386 220.938 108.386L220.939 108.382L220.943 108.375C222.024 106.241 220.903 104.214 219.363 102.735C217.806 101.239 215.513 99.9654 213.12 99.0356C210.722 98.1032 207.988 97.4252 205.415 97.2616C203.787 97.1575 201.944 97.2496 200.31 97.7865C199.154 97.0225 198.186 96.2666 197.513 95.6679L197.169 95.3638L196.696 95.1701C184.039 89.9959 153.694 74.4515 134.186 54.0115C131.007 50.6801 128.083 48.2049 125.396 46.4595C122.728 44.7269 120.15 43.6184 117.655 43.2008C115.053 42.7652 112.663 43.1074 110.715 44.102C108.862 45.0496 107.641 46.4672 106.873 47.9287C105.351 50.8295 105.265 54.551 106.438 57.6066C107.555 60.5216 110.31 63.8445 115.515 64.0119C116.01 64.0278 117.259 64.2825 119.446 65.0588C121.509 65.7915 124.075 66.864 127.061 68.2307C133.023 70.9608 140.466 74.7732 148.572 79.1445C164.544 87.7552 182.932 98.4463 197.34 107.064C198.434 109.263 200.329 111.887 203.162 114.998C219.812 133.286 227.558 155.577 229.324 164.354L229.401 164.731L229.657 165.063C230.527 166.194 231.659 168.071 232.192 169.93C232.296 170.293 232.371 170.633 232.419 170.95C204.743 182.559 184.197 201.907 170.413 225.707C141.264 237.385 120.161 271.575 120.161 311.933C120.161 350.903 139.837 384.12 167.433 396.874C179.507 424.148 196.19 448.053 213.318 467.15C211.563 479.472 211.645 492.369 212.4 504.767C212.993 514.485 214.68 523.591 219.237 532.267C222.27 538.045 226.542 545.008 232.596 548.06C233.458 548.495 233.526 548.386 233.218 547.82C231.299 544.326 229.682 540.297 228.956 536.398C227.558 528.88 227.889 521.198 228.78 513.64L228.802 513.434L228.826 513.219C228.941 512.105 229.055 511.011 229.725 512.715C229.795 512.893 229.884 513.231 229.992 513.64L229.993 513.642C230.334 514.932 230.865 516.941 231.604 517.025C231.978 517.068 232.238 516.59 232.425 516.247C232.433 516.233 232.439 516.22 232.445 516.208L232.447 516.204C232.838 515.493 233.146 514.742 233.453 513.988C233.673 513.445 233.896 512.902 234.15 512.372C236.892 506.642 240.054 501.125 243.975 496.217C252.469 502.929 260.389 508.068 267.128 511.425C267.128 511.425 284.636 521.288 296.839 521.091C308.47 520.904 325.002 511.425 325.002 511.425C331.901 507.988 340.039 502.682 348.764 495.734C352.866 500.762 356.146 506.454 358.98 512.372C359.231 512.901 359.454 513.443 359.676 513.986L359.677 513.988C359.984 514.742 360.29 515.493 360.681 516.204L360.703 516.247C360.89 516.59 361.15 517.068 361.524 517.025C362.265 516.941 362.796 514.93 363.135 513.64C363.243 513.231 363.333 512.895 363.403 512.717C364.072 511.011 364.187 512.107 364.304 513.218C364.319 513.36 364.335 513.503 364.35 513.64C365.239 521.198 365.571 528.88 364.172 536.398C363.447 540.297 361.828 544.326 359.912 547.822C359.602 548.386 359.67 548.495 360.532 548.06C366.587 545.008 370.858 538.045 373.893 532.267C378.449 523.591 380.137 514.485 380.728 504.767C381.485 492.338 381.567 479.403 379.796 467.051C379.755 466.764 379.71 466.479 379.663 466.196C396.267 447.512 412.387 424.324 424.219 397.945C453.089 386.063 473.931 352.048 473.931 311.938C473.931 270.429 451.609 235.446 421.168 224.768C407.466 201.528 387.248 182.617 360.166 171.142C360.204 170.713 360.294 170.236 360.444 169.711C360.977 167.852 362.108 165.975 362.98 164.844L363.235 164.512L363.312 164.135C365.078 155.358 372.824 133.067 389.474 114.778C392.306 111.667 394.202 109.045 395.295 106.845Z" fill="#042582"/>
<path fill-rule="evenodd" clip-rule="evenodd" d="M253.28 311.933C253.28 358.161 223.749 390.962 192.486 390.962C161.224 390.962 131.693 358.161 131.693 311.933C131.693 265.706 161.224 232.904 192.486 232.904C223.749 232.904 253.28 265.706 253.28 311.933Z" fill="white"/>
<path fill-rule="evenodd" clip-rule="evenodd" d="M462.4 311.938C462.4 358.166 432.868 390.967 401.607 390.967C370.345 390.967 340.812 358.166 340.812 311.938C340.812 265.709 370.345 232.909 401.607 232.909C432.868 232.909 462.4 265.709 462.4 311.938Z" fill="white"/>
</svg>
